<svg xmlns="http://www.w3.org/2000/svg" width="24" height="24" viewBox="0 0 24 24" fill="none">
  <path d="M21 11.5a8.5 8.5 0 1 0-2.3 5.7L22 22l-2.8-0.9A8.45 8.45 0 0 0 21 11.5z" fill="#25D366"/>
  <path d="M16.2 14.1c-0.2-0.1-1.2-0.6-1.4-0.6-0.2 0-0.5 0-0.8 0.6s-0.9 0.6-1.1 0.6c-0.2 0-0.5-0.1-0.8-0.3-0.8-0.6-1.6-1.8-1.8-2.2-0.2-0.4 0-0.6 0.1-0.7 0.1-0.1 0.2-0.3 0.3-0.4 0.1-0.1 0.1-0.2 0.2-0.3 0.1-0.1 0.1-0.2 0.2-0.3 0.1-0.1 0.1-0.1 0.2-0.1s0.2 0 0.3 0c0.1 0 0.3 0 0.5 0.1 0.8 0.2 1.4 0.9 1.6 1 0.3 0.2 0.5 0.3 0.8 0.2 0.3-0.1 0.9-0.3 1.4-0.8 0.2-0.2 0.4-0.3 0.6-0.3 0.2 0 0.5 0 0.8 0.3 0.3 0.3 0.9 1 1 2 0.1 0.9-0.3 1.6-0.6 1.8-0.3 0.2-0.7 0.2-0.9 0.2-0.2 0-0.8-0.1-1-0.2z" fill="#fff"/>
</svg>