<svg xmlns="http://www.w3.org/2000/svg" viewBox="0 0 24 24" width="24" height="24" fill="none">
  <rect width="24" height="24" rx="4" fill="#5ae1ff" />
  <path d="M12 .5C5.7.5.7 5.5.7 11.8c0 5 3.3 9.2 7.9 10.7.6.1.8-.3.8-.6v-2.1c-3.2.7-3.9-1.4-3.9-1.4-.5-1.3-1.2-1.7-1.2-1.7-1-.7.1-.7.1-.7 1.1.1 1.7 1.1 1.7 1.1 1 .1 1.7.8 2.2 1.2.1-.9.4-1.5.7-1.9-2.6-.3-5.3-1.3-5.3-5.8 0-1.3.5-2.3 1.2-3.1-.1-.3-.5-1.6.1-3.3 0 0 1-.3 3.4 1.1 1-.3 2-.5 3-.5s2 .2 3 .5c2.4-1.4 3.4-1.1 3.4-1.1.6 1.7.2 3 .1 3.3.8.8 1.2 1.8 1.2 3.1 0 4.5-2.7 5.5-5.3 5.8.4.4.7 1 .7 2v3c0 .3.2.7.8.6 4.6-1.5 7.9-5.7 7.9-10.7C23.3 5.5 18.3.5 12 .5z" fill="#051225"/>
</svg>
